<?xml version="1.0"?>
<svg xmlns="http://www.w3.org/2000/svg" xmlns:xlink="http://www.w3.org/1999/xlink" version="1.1" id="Capa_1" x="0px" y="0px" viewBox="0 0 512 512" style="enable-background:new 0 0 512 512;" xml:space="preserve" width="512px" height="512px" class=""><g><g>
	<path style="fill:#344968;" d="M135.473,402.235c-1.891,0-3.784-0.721-5.226-2.164c-33.589-33.59-52.088-78.25-52.088-125.755   c0-38.707,12.219-75.504,35.335-106.413c22.347-29.88,54.177-52.407,89.627-63.43c3.9-1.211,8.041,0.966,9.253,4.865   c1.212,3.898-0.965,8.04-4.864,9.253c-32.498,10.105-61.682,30.762-82.178,58.167c-21.19,28.333-32.391,62.069-32.391,97.559   c0,43.556,16.961,84.503,47.757,115.3c2.887,2.888,2.887,7.567,0,10.454C139.257,401.513,137.364,402.235,135.473,402.235z" data-original="#344968"/>
	<path style="fill:#344968;" d="M256,452.158c-25.166,0-49.492-5.152-72.302-15.314c-3.729-1.662-5.406-6.031-3.744-9.759   c1.662-3.728,6.031-5.407,9.76-3.744c20.905,9.312,43.207,14.033,66.287,14.033c25.926,0,50.708-5.903,73.659-17.544   c21.896-11.107,41.346-27.34,56.246-46.944c1.316-1.733,2.608-3.505,3.838-5.266c2.339-3.346,6.945-4.162,10.293-1.826   c3.347,2.339,4.164,6.947,1.826,10.293c-1.342,1.92-2.751,3.853-4.187,5.742c-16.244,21.375-37.451,39.074-61.33,51.185   C311.304,445.717,284.271,452.158,256,452.158z" data-original="#344968"/>
	<path style="fill:#344968;" d="M425.904,268.204c-3.822,0-7.059-2.941-7.362-6.815c-2.566-32.826-14.872-63.743-35.589-89.41   c-20.437-25.319-47.57-43.782-78.464-53.389l-0.72-0.229c-3.889-1.241-6.037-5.4-4.796-9.289c1.241-3.889,5.4-6.035,9.289-4.796   l0.642,0.204c33.679,10.474,63.27,30.607,85.554,58.213c22.6,28,36.025,61.73,38.825,97.542c0.317,4.07-2.724,7.627-6.793,7.947   C426.292,268.197,426.097,268.204,425.904,268.204z" data-original="#344968"/>
</g><g>
	<path style="fill:#8BA7BC;" d="M485.761,297.619c-0.169,0-0.34-0.006-0.512-0.018c-4.073-0.278-7.149-3.804-6.871-7.878   c0.349-5.099,0.524-10.284,0.524-15.409c0-46.208-14.009-90.528-40.512-128.171c-25.923-36.819-61.797-64.642-103.744-80.463   c-3.82-1.441-5.749-5.705-4.308-9.524c1.44-3.82,5.708-5.751,9.524-4.308c44.731,16.871,82.979,46.534,110.615,85.784   c28.267,40.147,43.208,87.412,43.208,136.683c0,5.46-0.187,10.983-0.559,16.416C492.861,294.632,489.613,297.619,485.761,297.619z" data-original="#8BA7BC" class=""/>
	<path style="fill:#8BA7BC;" d="M256,512c-45.141,0-89.063-12.709-127.02-36.752c-3.449-2.185-4.473-6.751-2.289-10.201   c2.184-3.448,6.749-4.475,10.2-2.288c35.588,22.542,76.774,34.457,119.11,34.457c51.666,0,102.025-18.08,141.797-50.907   c39.252-32.399,66.451-77.537,76.584-127.098c0.817-4,4.724-6.582,8.722-5.762c4,0.817,6.58,4.723,5.762,8.722   c-10.808,52.862-39.808,100.997-81.657,135.538C364.792,492.719,311.092,512,256,512z" data-original="#8BA7BC" class=""/>
	<path style="fill:#8BA7BC;" d="M43.275,370.081c-2.897,0-5.646-1.713-6.828-4.555c-12.032-28.929-18.132-59.617-18.132-91.211   c0-54.096,18.661-107.035,52.543-149.066c33.381-41.409,80.149-70.738,131.69-82.584c3.981-0.916,7.947,1.571,8.86,5.549   c0.915,3.978-1.57,7.946-5.548,8.859c-48.325,11.107-92.182,38.614-123.492,77.454c-31.772,39.413-49.269,89.056-49.269,139.788   c0,29.635,5.719,58.413,16.999,85.534c1.568,3.769-0.217,8.095-3.986,9.663C45.183,369.898,44.221,370.081,43.275,370.081z" data-original="#8BA7BC" class=""/>
</g><path style="fill:#1D1D1D" d="M164.712,219.159v82.083h182.577v-89.269c0-18.06-14.641-32.701-32.701-32.701h-13.277l-1.005-2.07  c-5.411-11.143-16.709-18.217-29.096-18.217h-46.323C191.653,158.984,164.712,185.925,164.712,219.159z" data-original="#F9DC6A" class="" data-old_color="#1D1C1C"/><path style="fill:#6D6C6C" d="M314.587,179.27h-13.277l-1.005-2.07c-5.411-11.143-16.709-18.216-29.096-18.216h-19.279  c12.387,0,23.686,7.074,29.096,18.216l1.005,2.07h13.277c18.06,0,32.701,14.642,32.701,32.701v89.269h19.279v-89.269  C347.288,193.911,332.648,179.27,314.587,179.27z" data-original="#E5AC51" class="active-path" data-old_color="#6C6868"/><path style="fill:#FFCCAA;" d="M359.561,298.154v7.825c0,9.135-7.406,16.541-16.541,16.541h-16.291  c-0.968,18.695-9.176,35.485-21.885,47.595c-12.71,12.102-29.907,19.53-48.844,19.53c-37.873,0-68.802-29.72-70.729-67.124H168.98  c-9.135,0-16.541-7.406-16.541-16.541v-7.825c0-9.135,7.406-16.541,16.541-16.541h16.19v-29.571h59.462  c28.289,0,51.794-20.451,56.532-47.38c0.411-2.338,3.199-3.303,4.959-1.71c12.72,11.505,20.708,28.143,20.708,46.649v32.013h16.19  C352.156,281.612,359.561,289.018,359.561,298.154z" data-original="#FFCCAA"/><path style="fill:#F2A077;" d="M343.021,281.612h-16.19v-32.013c0-18.506-7.989-35.142-20.708-46.648  c-1.76-1.593-4.548-0.627-4.959,1.71c-0.778,4.419-2.069,8.659-3.795,12.667c4.95,9.435,7.806,20.469,7.806,32.27v32.013  l-0.089,40.908c-0.848,18.695-8.036,35.486-19.168,47.595c-9.772,10.623-22.572,17.641-36.772,19.198  c2.256,0.217,4.542,0.331,6.856,0.331c18.937,0,36.133-7.428,48.844-19.529c12.71-12.11,20.919-28.9,21.885-47.595h16.291  c9.135,0,16.541-7.406,16.541-16.541v-7.825C359.561,289.017,352.156,281.612,343.021,281.612z" data-original="#F2A077"/><g>
	<path style="fill:#475D6D;" d="M256,349.871c-9.626,0-18.686-3.75-25.511-10.559c-3.449-3.449-6.114-7.469-7.924-11.952   c-1.529-3.786,0.302-8.093,4.087-9.621c3.787-1.532,8.093,0.302,9.621,4.086c1.062,2.63,2.63,4.994,4.663,7.026   c4.029,4.019,9.381,6.236,15.064,6.236c8.716,0,16.461-5.21,19.732-13.274c1.535-3.783,5.843-5.603,9.629-4.071   c3.783,1.536,5.606,5.845,4.071,9.629C283.887,341.039,270.764,349.871,256,349.871z" data-original="#475D6D"/>
	<path style="fill:#475D6D;" d="M220.542,293.589c-4.082,0-7.392-3.309-7.392-7.392v-3.422c0-4.083,3.31-7.392,7.392-7.392   s7.392,3.309,7.392,7.392v3.422C227.934,290.28,224.624,293.589,220.542,293.589z" data-original="#475D6D"/>
	<path style="fill:#475D6D;" d="M291.458,293.589c-4.083,0-7.392-3.309-7.392-7.392v-3.422c0-4.083,3.309-7.392,7.392-7.392   s7.392,3.309,7.392,7.392v3.422C298.85,290.28,295.541,293.589,291.458,293.589z" data-original="#475D6D"/>
</g><path style="fill:#2BB4F3;" d="M100.478,368.659c-31.866,0-57.7,25.833-57.7,57.701c0,46.159,57.7,76.784,57.7,76.784  s57.7-30.625,57.7-76.784C158.177,394.492,132.345,368.659,100.478,368.659z M100.478,451.214  c-13.727,0-24.855-11.128-24.855-24.855c0-13.728,11.128-24.856,24.855-24.856s24.855,11.128,24.855,24.856  C125.334,440.086,114.206,451.214,100.478,451.214z" data-original="#2BB4F3"/><path style="fill:#75DC5E;" d="M418.441,260.094c-21.5,0-38.929,17.429-38.929,38.93c0,31.143,38.929,51.805,38.929,51.805  s38.929-20.662,38.929-51.805C457.37,277.524,439.941,260.094,418.441,260.094z M418.441,315.793  c-9.261,0-16.769-7.508-16.769-16.769c0-9.261,7.508-16.769,16.769-16.769c9.261,0,16.769,7.508,16.769,16.769  C435.21,308.285,427.702,315.793,418.441,315.793z" data-original="#75DC5E" class=""/><path style="fill:#FF5A59" d="M256,0c-28.407,0-51.436,23.029-51.436,51.437c0,41.147,51.436,68.448,51.436,68.448  s51.436-27.3,51.436-68.448C307.436,23.029,284.407,0,256,0z M256,73.592c-12.237,0-22.156-9.92-22.156-22.156  s9.92-22.157,22.156-22.157c12.237,0,22.156,9.92,22.156,22.157C278.157,63.672,268.237,73.592,256,73.592z" data-original="#FF5A59" class=""/></g> </svg>
